<svg xmlns="http://www.w3.org/2000/svg" viewBox="0 0 368 368"><path d="M262.843 44.673h37.364c-3.809 3.913-3.782 10.169.091 14.042a9.972 9.972 0 007.071 2.929 9.97 9.97 0 007.071-2.929l16.971-16.971c3.905-3.905 3.905-10.237 0-14.143L314.44 10.63c-3.905-3.904-10.237-3.904-14.143 0-3.873 3.873-3.899 10.129-.091 14.042h-37.364c-5.523 0-10 4.477-10 10 .001 5.524 4.479 10.001 10.001 10.001zm61.498 37.475h-37.364c3.809-3.913 3.782-10.169-.091-14.042-3.905-3.904-10.237-3.904-14.143 0l-16.971 16.971c-3.905 3.905-3.905 10.237 0 14.143l16.971 16.971c1.953 1.952 4.512 2.929 7.071 2.929s5.119-.977 7.071-2.929c3.873-3.873 3.899-10.129.091-14.042h37.364c5.523 0 10-4.477 10-10 .001-5.524-4.477-10.001-9.999-10.001zm-44.92 72.045c-5.573 0-11.22 1.072-16.508 3.065-7.351-14.431-22.344-24.338-39.604-24.338-6.153 0-12.015 1.165-17.344 3.271-7.494-14.005-22.274-23.558-39.244-23.558a44.62 44.62 0 00-12.393 1.743l.009-12.229.03-41.719c.008-11.525.011-16.671-.031-19.242h.042C154.378 18.861 134.116 0 110.133 0 85.611 0 65.661 19.95 65.661 44.472v135.569c-16.375 5.479-30.829 20.592-31.436 42.169-.95 33.752 1.817 76.462 31.894 107.397 25.39 26.115 65.127 38.81 121.481 38.81 50.685 0 88.17-14.908 111.415-44.311 16.326-20.651 24.955-48.48 24.955-80.48l-.078-44.995c0-24.488-19.95-44.438-44.471-44.438zM187.6 348.416c-119.309 0-135.217-60.477-133.383-125.644.442-15.717 13.954-25 25-25v28.823c0 3.625 2.514 4.047 3.264 4.047s3.18-.412 3.18-4.038V44.472C85.661 30.957 96.617 20 110.133 20c12.401 0 24.246 9.583 24.246 21.188.007.045-.064 89.86-.077 111.957-.001.046-.013.089-.013.135v4.617a3.986 3.986 0 007.97 0v-1.194c.217-13.328 11.083-24.067 24.463-24.067 13.515 0 24.472 10.957 24.472 24.473l.019 17.721a3.925 3.925 0 107.848 0l-.008-1.014c0-12.305 11.956-20.894 24.256-20.894 13.517 0 24.422 10.956 24.422 24.472l.049 17.937a3.82 3.82 0 007.637 0l-.014-1.365c0-11.19 12.108-19.77 24.017-19.77 13.514 0 24.472 10.957 24.472 24.472l.078 44.96c0 41.812-16.262 104.788-116.37 104.788z"/></svg>