<svg xmlns="http://www.w3.org/2000/svg" width="120" height="120" viewBox="0 0 120 120"><path d="M54.5 27c0-1-1-2-2-2H23v-3.125c0-.606-.615-1.153-1.176-1.386s-1.456-.104-1.885.325L15 26.375c-.586.586-.586 1.414 0 2l4.939 5.561c.429.429 1.324.558 1.885.325S23 33.481 23 32.875V29h29.5c1 0 2-1 2-2zm-27-8H58v3.875c0 .606.115 1.153.676 1.386s.956.104 1.385-.325L66 18.375c.586-.586.586-1.414 0-2l-5.939-5.561c-.429-.429-.824-.558-1.385-.325S58 11.268 58 11.875V15H27.5c-1 0-2 1-2 2s1 2 2 2zm70.982 41.875c-.407 0-1.44.14-2.502.47-.271-3.613-3.299-6.47-6.98-6.47a6.967 6.967 0 00-4.382 1.545c-.887-2.708-3.232-4.545-6.136-4.545a6.623 6.623 0 00-4.854 2.083l-.664-18.583c0-4.276-3.011-7.5-7.004-7.5s-7.004 3.224-7.004 7.532l.686 32.025c-.808.439-2.034 1.242-3.603 2.667-5.429 4.934-7.206 16.868-1.075 26.105 6.825 10.282 14.822 14.671 26.742 14.671 12.629 0 16.854-6.338 20.1-12.83 3.122-6.244 3.158-30.156 3.158-31.17.001-3.197-3.028-6-6.482-6zm.641 35.828c-3.056 6.112-6.475 11.172-17.416 11.172-10.936 0-17.959-3.862-24.242-13.33-3.661-5.516-5.25-16.916.593-22.227a21.45 21.45 0 011.66-1.371l.224 10.459a1.5 1.5 0 003-.064l-.984-45.967c0-2.649 1.646-4.5 4.004-4.5s4.004 1.851 4.005 4.554l1 28a1.499 1.499 0 002.978.196l.759-4.5c.014-.083.021-.166.021-.25 0-2.28 1.616-4 3.759-4 2.417 0 3.518 2.073 3.518 4v3a1.5 1.5 0 003 0c0-2.206 1.794-4 4-4s4 1.794 4 4v6.5a1.5 1.5 0 003 0v-3.82c.6-.292 1.776-.68 2.482-.68 1.79 0 3.482 1.457 3.482 3-.001 6.716-.513 25.168-2.843 29.828z" fill="#231F20"/></svg>