<svg width="197" height="206" viewBox="0 0 197 206" fill="none" xmlns="http://www.w3.org/2000/svg">
<path d="M194.114 199.964H184.751L179.888 154.206C179.712 152.55 178.286 151.355 176.702 151.54C175.117 151.725 173.976 153.217 174.152 154.873L178.94 199.925H160.841L152.041 117.073C157.865 119.897 165.601 118.034 169.689 112.873L172.763 141.803C172.927 143.346 174.177 144.488 175.628 144.488C175.734 144.488 175.842 144.482 175.95 144.469C177.534 144.285 178.675 142.793 178.499 141.137L173.097 90.2946V77.9506C173.097 76.8207 172.465 75.7556 171.5 75.2494L101.386 38.5896V29.8606L123.694 18.1959C126.107 16.9798 126.107 13.8614 123.694 12.7974L99.7909 0.298118C97.4392 -0.425775 95.5184 0.0562836 95.6146 2.99732V38.5896L71.4958 51.1992C70.0702 51.9444 69.4923 53.7567 70.2053 55.248C70.9179 56.7396 72.652 57.3448 74.0768 56.5976L90.072 48.2352L73.0541 74.9311H39.0171L62.8304 62.4809C64.256 61.7357 64.8339 59.9233 64.1209 58.4321C63.4083 56.9412 61.6753 56.336 60.2494 57.0825L25.5005 75.2498C24.5352 75.7548 23.9041 76.8219 23.9041 77.951V90.295L19.0938 135.555C18.9175 137.212 20.0591 138.704 21.6432 138.888C23.058 139.051 24.1204 138.162 24.8299 136.222L27.3113 112.873C31.399 118.034 39.1352 119.897 44.9591 117.073L36.159 199.925H18.0603L23.4409 149.296C23.6171 147.639 22.4755 146.147 20.8914 145.963C19.3062 145.778 17.8806 146.973 17.7047 148.629L12.2487 199.964H2.88576C1.29167 199.964 0 201.315 0 202.982C0 204.649 1.29167 206 2.88576 206H194.114C195.708 206 197 204.649 197 202.982C197 201.315 195.708 199.964 194.114 199.964ZM101.386 7.88068L115.951 15.4966L101.386 23.1126V7.88068ZM136.944 199.964L128.135 117.072C133.96 119.898 141.7 118.034 145.787 112.871L155.038 199.964H136.944ZM125.289 87.4727V80.9689H167.325V87.4333L125.289 87.4727ZM119.518 102.99C119.518 108.217 115.451 112.471 110.452 112.471C105.452 112.471 101.385 108.218 101.385 102.99V93.5085H119.517V102.99H119.518ZM95.6142 102.99C95.6142 108.217 91.5472 112.471 86.5479 112.471C81.5486 112.471 77.482 108.218 77.482 102.99V93.5085H95.6138V102.99H95.6142ZM119.518 87.4333H77.4824V80.9689H119.518V87.4333ZM71.7109 80.9689V87.4727L29.6753 87.4333V80.9689H71.7109ZM53.5786 93.5085H71.7109V102.99C71.7109 108.218 67.6439 112.471 62.6446 112.471C57.6453 112.471 53.5783 108.218 53.5783 102.99V93.5085H53.5786ZM75.1184 112.873C80.1739 119.257 89.3652 120.293 95.5815 115.287C94.9732 144.103 84.534 172.45 66.4734 194.222L75.1184 112.873ZM110.452 118.507C115.046 118.507 119.158 116.312 121.882 112.873L130.527 194.223C112.468 172.453 102.026 144.1 101.418 115.287C103.922 117.304 107.055 118.507 110.452 118.507ZM125.289 102.99V93.5085H143.421V102.99C143.421 108.218 139.354 112.471 134.355 112.471C129.356 112.471 125.289 108.218 125.289 102.99ZM51.2127 112.871C55.3005 118.034 63.0397 119.898 68.8651 117.072L60.0605 199.925H41.9659L51.2127 112.871ZM98.5 140.454C99.8563 156.422 112.544 183.165 127.683 199.964H69.3168C81.0277 188.899 99.4619 151.779 98.5 140.454ZM167.325 102.99C167.325 108.217 163.258 112.471 158.259 112.471C153.31 112.471 149.193 108.195 149.193 102.99V93.5085H167.324V102.99H167.325ZM123.947 74.9311L106.929 48.236L157.984 74.9311H123.947ZM98.5 45.8945L117.01 74.9311H79.9899L98.5 45.8945ZM29.6753 102.99V93.5085H47.8071V102.99C47.8071 108.196 43.6905 112.471 38.7408 112.471C33.7419 112.471 29.6753 108.218 29.6753 102.99Z" fill="white"/>
</svg>
