<svg width="169" height="207" viewBox="0 0 169 207" fill="none" xmlns="http://www.w3.org/2000/svg">
<path d="M165.204 80.2473L165.205 80.2449C146.516 75.902 129.47 68.478 114.541 58.1785C104.612 51.3264 95.8239 43.3 88.3882 34.3012H116.214C118.338 34.3012 120.061 32.499 120.061 30.2767V11.011C120.061 8.7887 118.338 6.98653 116.214 6.98653H87.9555V4.0245C87.9555 1.80177 86.2334 0 84.109 0C81.9846 0 80.2625 1.80177 80.2625 4.0245V33.7688C72.7357 42.9828 63.8003 51.1916 53.6771 58.1777C38.7481 68.4776 21.7023 75.9016 3.01334 80.2445L3.01373 80.2469C1.29011 80.6453 0 82.2511 0 84.174V202.028C0 204.251 1.72246 206.053 3.84649 206.053H68.0576C70.1816 206.053 71.9041 204.251 71.9041 202.028C71.9041 199.806 70.1816 198.004 68.0576 198.004H47.6735C56.8423 190.152 64.8873 180.779 71.2871 170.43C76.8133 161.494 81.1249 151.953 84.1775 141.925C87.3035 151.951 91.6628 161.495 97.2102 170.435C103.702 180.899 111.568 190.134 120.675 198.004H100.265C98.1406 198.004 96.4182 199.806 96.4182 202.028C96.4182 204.251 98.1406 206.053 100.265 206.053H164.372C166.496 206.053 168.218 204.251 168.218 202.028V84.1744C168.218 82.2515 166.928 80.6457 165.204 80.2473ZM7.69299 181.907V100.601C11.066 103.352 15.301 104.997 19.8983 104.997C24.496 104.997 28.731 103.352 32.104 100.601V181.907H7.69299ZM8.31843 88.1989H31.4793C29.8642 93.2758 25.2849 96.9477 19.8987 96.9477C14.5124 96.9477 9.93357 93.2758 8.31843 88.1989ZM136.118 100.604C139.49 103.354 143.724 104.997 148.32 104.997C152.918 104.997 157.153 103.352 160.526 100.601V181.907H136.118V100.604H136.118ZM136.739 88.1989H159.9C158.285 93.2758 153.706 96.9477 148.32 96.9477C142.933 96.9481 138.354 93.2758 136.739 88.1989ZM112.368 15.0355V26.2518H87.9555V15.0355H112.368ZM84.1094 41.3976C87.6374 45.5118 91.4373 49.4216 95.4842 53.1153H72.7345C76.781 49.4216 80.5814 45.5118 84.1094 41.3976ZM57.9124 64.8974C59.6645 63.6881 61.382 62.4425 63.0667 61.1647H105.151C106.836 62.4429 108.554 63.6885 110.306 64.8978C119.059 70.937 128.496 76.0316 138.525 80.1499H29.6926C39.7224 76.0316 49.159 70.9366 57.9124 64.8974ZM127.797 88.1989C126.181 93.2758 121.6 96.9477 116.212 96.9477C110.826 96.9477 106.247 93.2758 104.632 88.1989H127.797ZM95.6896 88.1989C94.0745 93.2758 89.4952 96.9477 84.109 96.9477C78.7227 96.9477 74.1435 93.2758 72.5284 88.1989H95.6896ZM63.5868 88.1989C61.9716 93.2758 57.3928 96.9477 52.0065 96.9477C46.6184 96.9477 42.0376 93.2758 40.4217 88.1989H63.5868ZM7.69299 198.004V189.956H44.874C41.6587 192.854 38.2784 195.541 34.77 198.004H7.69299ZM52.9224 181.907H39.7974V100.601C43.1711 103.352 47.4073 104.997 52.0061 104.997C56.6035 104.997 60.8381 103.352 64.2111 100.602V167.027C60.8769 172.294 57.092 177.284 52.9224 181.907ZM84.1098 121.263C84.1028 121.263 84.0967 121.263 84.0901 121.263C82.2258 121.273 80.6372 122.68 80.319 124.602C78.6993 134.397 75.8752 143.792 71.9041 152.682V100.602C75.2771 103.352 79.5117 104.997 84.109 104.997C88.7083 104.997 92.9444 103.351 96.3178 100.598V152.192C92.4063 143.432 89.5799 134.188 87.8924 124.561C87.5574 122.65 85.9653 121.263 84.1098 121.263ZM104.011 166.599V100.605C107.383 103.354 111.617 104.997 116.212 104.997C120.813 104.997 125.05 103.35 128.425 100.598V181.907H115.554C111.286 177.148 107.413 172.012 104.011 166.599ZM133.468 198.004C130.022 195.532 126.698 192.845 123.532 189.956H160.525V198.004H133.468Z" fill="white"/>
<path d="M84.1094 206.05C86.2338 206.05 87.9559 204.248 87.9559 202.026C87.9559 199.803 86.2338 198.001 84.1094 198.001C81.9851 198.001 80.2629 199.803 80.2629 202.026C80.2629 204.248 81.9851 206.05 84.1094 206.05Z" fill="white"/>
</svg>
