<svg width="206" height="215" viewBox="0 0 206 215" fill="none" xmlns="http://www.w3.org/2000/svg">
<path d="M144.763 96.5501C143.263 98.2614 143.372 100.921 145.008 102.491C146.644 104.061 149.186 103.946 150.686 102.235C152.186 100.524 152.077 97.8637 150.441 96.2941C148.806 94.7245 146.264 94.8393 144.763 96.5501Z" fill="white"/>
<path d="M205.6 209.598L182.15 125.748C181.933 124.973 181.495 124.262 180.909 123.736L164.142 108.676C162.457 107.162 159.918 107.364 158.47 109.128C157.023 110.891 157.217 113.548 158.902 115.062L167.429 122.721H137.901L125.354 84.9294L131.303 90.2735C132.989 91.7864 135.527 91.585 136.975 89.8215C138.422 88.0581 138.229 85.4011 136.543 83.887L106.901 57.2614V30.5104H131.033V37.3489C131.033 39.6728 132.834 41.5573 135.056 41.5573H151.144C153.365 41.5573 155.166 39.6732 155.166 37.3489V15.2554C155.166 12.9315 153.366 11.0469 151.144 11.0469H139.078V4.20846C139.078 1.88454 137.277 0 135.055 0H102.879C100.658 0 98.8564 1.88412 98.8564 4.20846V26.3019V57.2614L24.848 123.736C24.2632 124.262 23.8236 124.973 23.6074 125.748L0.157864 209.598C-0.432886 211.71 0.685118 214.001 2.66393 214.742C4.81393 215.547 7.23761 214.253 7.87819 211.962L23.4454 156.297V210.61C23.4454 212.934 25.2462 214.818 27.4678 214.818H178.29C180.511 214.818 182.312 212.934 182.312 210.61V156.297L197.88 211.962C198.522 214.258 200.942 215.541 203.094 214.742C205.074 214.007 206.19 211.706 205.6 209.598ZM109.797 206.402H96.3467V187.112C96.3467 183.41 99.3636 180.397 103.072 180.397C106.78 180.397 109.797 183.409 109.797 187.112V206.402ZM103.072 171.981C94.9281 171.981 88.3025 178.768 88.3025 187.112V206.402H74.8567V146.445C76.8753 147.53 79.1603 148.147 81.5816 148.147C85.8125 148.147 89.6307 146.272 92.3252 143.278C95.0205 146.272 98.8399 148.147 103.072 148.147C107.282 148.147 111.091 146.281 113.787 143.299C116.483 146.313 120.315 148.201 124.562 148.201C126.751 148.201 128.828 147.697 130.699 146.799V206.402H117.841V187.112C117.841 178.768 111.216 171.981 103.072 171.981ZM109.797 132.729C109.777 136.59 106.76 139.73 103.072 139.73C99.3636 139.73 96.3467 136.574 96.3467 132.694C96.3467 132.184 96.4018 131.678 96.5055 131.185H109.639C109.742 131.678 109.797 132.184 109.797 132.694V132.729H109.797ZM53.525 131.185H66.6537C66.757 131.678 66.8125 132.184 66.8125 132.694C66.8125 136.574 63.7972 139.73 60.0916 139.73C56.3831 139.73 53.3667 136.574 53.3667 132.694C53.3667 132.184 53.4217 131.678 53.525 131.185ZM75.0154 131.185H88.1441C88.2474 131.678 88.3029 132.184 88.3029 132.694C88.3029 136.574 85.2877 139.73 81.582 139.73C77.8735 139.73 74.8571 136.574 74.8571 132.694C74.8567 132.184 74.9118 131.678 75.0154 131.185ZM117.841 132.719C117.844 132.199 117.904 131.685 118.012 131.185H131.115C131.227 131.696 131.287 132.221 131.287 132.753C131.287 136.63 128.27 139.784 124.562 139.784C120.856 139.784 117.841 136.63 117.841 132.753V132.719ZM139.503 131.185H152.606C152.717 131.696 152.777 132.221 152.777 132.753C152.777 136.63 149.761 139.784 146.052 139.784C142.346 139.784 139.332 136.63 139.332 132.753C139.332 132.222 139.391 131.697 139.503 131.185ZM32.0346 131.185H45.1637C45.267 131.678 45.3225 132.184 45.3225 132.694C45.3225 136.574 42.3076 139.73 38.6016 139.73C34.8931 139.73 31.8763 136.574 31.8763 132.694C31.8759 132.184 31.9313 131.678 32.0346 131.185ZM53.3667 146.445C55.3853 147.53 57.6703 148.147 60.0916 148.147C62.5112 148.147 64.7951 147.53 66.8125 146.446V206.402H53.3667V146.445ZM138.743 146.167C140.9 147.459 143.394 148.201 146.052 148.201C148.474 148.201 150.759 147.585 152.777 146.5V206.402H138.743V146.167ZM160.993 131.185H174.097C174.208 131.696 174.268 132.221 174.268 132.753C174.268 136.63 171.251 139.784 167.543 139.784C163.837 139.784 160.822 136.63 160.822 132.753C160.822 132.222 160.882 131.697 160.993 131.185ZM113.224 74.0422L129.386 122.721H76.3722L92.5338 74.0422C92.535 74.0384 92.5358 74.0342 92.537 74.0304L102.879 64.7415L113.221 74.0309C113.222 74.0347 113.223 74.0384 113.224 74.0422ZM147.122 19.4634V33.1404H139.078V19.4634H147.122ZM106.901 8.41692H131.034V22.0939H106.901V8.41692ZM80.4037 84.929L67.8565 122.721H38.3279L80.4037 84.929ZM31.4901 146.232C33.6011 147.451 36.0248 148.147 38.6016 148.147C41.0212 148.147 43.3051 147.53 45.3225 146.446V206.402H31.4901V146.232ZM160.822 206.402V146.501C162.839 147.585 165.123 148.201 167.542 148.201C169.964 148.201 172.249 147.585 174.268 146.5V206.402H160.822V206.402Z" fill="white"/>
</svg>
